<svg width="500" height="500" viewBox="0 0 500 500" fill="none" xmlns="http://www.w3.org/2000/svg">
<rect width="500" height="500" transform="translate(0 0.000488281)" fill="white"/>
<path fill-rule="evenodd" clip-rule="evenodd" d="M133.266 66.0748C142.833 66.0748 146.839 69.0193 150.473 82.4273L216.52 309.894C222.973 336.424 232.565 350.615 249.541 350.615H250.337C267.319 350.615 276.905 336.424 283.364 309.894L349.392 82.4273C353.032 69.0193 357.045 66.0748 366.599 66.0748H416.608C418.723 65.8293 420.86 66.1949 422.803 67.1348C424.747 68.0747 426.43 69.5557 427.681 71.4289C428.933 73.3021 429.709 75.5013 429.933 77.8053C430.156 80.1093 429.819 82.4368 428.955 84.5536L356.57 328.87C335.44 395.889 324.705 434 260.969 434H238.915C175.179 434 164.437 395.889 143.314 328.87L70.9168 84.5536C70.0257 82.1264 69.7778 79.4756 70.2011 76.9025C70.6245 74.3294 71.7022 71.9374 73.3117 69.9985C74.6144 68.6042 76.1776 67.5319 77.8949 66.8548C79.6122 66.1777 81.4432 65.9117 83.2634 66.0748H133.266Z" fill="#442AAA"/>
</svg>
